<svg xmlns="http://www.w3.org/2000/svg" width="20" height="20" fill="currentColor" viewBox="0 0 460.002 460.002"><g><g><g><path d="M427.137,0H32.865C14.743,0,0,14.743,0,32.865v394.272c0,18.151,14.714,32.865,32.865,32.865h394.272c18.151,0,32.865-14.714,32.865-32.865V32.865C460.002,14.743,445.259,0,427.137,0z M430.002,427.137c0,1.58-1.285,2.865-2.865,2.865H32.865c-1.582,0-2.865-1.283-2.865-2.865V32.865C30,31.283,31.283,30,32.865,30h394.272c1.58,0,2.865,1.285,2.865,2.865V427.137z"/><path d="M292.33,201.531c-2.754-4.323-7.524-6.939-12.65-6.939c-5.126,0-9.896,2.617-12.65,6.939l-72.346,113.536l-37.029-58.111 c-2.754-4.322-7.524-6.939-12.65-6.939s-9.896,2.617-12.65,6.939L55.263,377.94c-2.943,4.618-3.135,10.473-0.501,15.275c2.634,4.801,7.675,7.786,13.151,7.786h324.176c5.477,0,10.518-2.984,13.151-7.786s2.442-10.657-0.501-15.275L292.33,201.531zM95.258,371.001l49.747-78.07l37.029,58.11c2.754,4.323,7.524,6.939,12.65,6.939c5.126,0,9.896-2.617,12.65-6.939l72.346-113.536l85.064,133.496H95.258z"/><path d="M139.001,198.001c39.149,0,71-31.851,71-71c0-39.149-31.851-71-71-71c-39.149,0-71,31.851-71,71C68.001,166.15,99.852,198.001,139.001,198.001z M139.001,86.001c22.607,0,41,18.393,41,41s-18.393,41-41,41s-41-18.393-41-41S116.394,86.001,139.001,86.001z"/></g></g></g></svg>