<svg width="20" height="20" viewBox="0 0 20 20" fill="currentColor" xmlns="http://www.w3.org/2000/svg"><g><path d="M10 4.12109C6.72266 4.12109 4.05469 6.78906 4.05469 10.0664C4.05469 13.3438 6.72266 16.0117 10 16.0117C13.2773 16.0117 15.9453 13.3438 15.9453 10.0664C15.9453 6.78516 13.2773 4.12109 10 4.12109ZM10 14.4141C7.60156 14.4141 5.64844 12.4609 5.64844 10.0625C5.64844 7.66406 7.60156 5.71094 10 5.71094C12.3984 5.71094 14.3516 7.66406 14.3516 10.0625C14.3516 12.4609 12.3984 14.4141 10 14.4141V14.4141Z" /><path d="M10 2.92188C10.4414 2.92188 10.7969 2.56641 10.7969 2.125V1.22656C10.7969 0.785156 10.4414 0.429688 10 0.429688C9.55859 0.429688 9.20312 0.785156 9.20312 1.22656V2.125C9.20313 2.56641 9.55859 2.92188 10 2.92188V2.92188Z" /><path d="M10 17.0781C9.55859 17.0781 9.20312 17.4336 9.20312 17.875V18.7695C9.20312 19.2109 9.55859 19.5664 10 19.5664C10.4414 19.5664 10.7969 19.2109 10.7969 18.7695V17.875C10.7969 17.4375 10.4414 17.0781 10 17.0781V17.0781Z" /><path d="M18.7734 9.20312H17.875C17.4336 9.20312 17.0781 9.55859 17.0781 10C17.0781 10.4414 17.4336 10.7969 17.875 10.7969H18.7734C19.2148 10.7969 19.5703 10.4414 19.5703 10C19.5703 9.55859 19.2148 9.20312 18.7734 9.20312V9.20312Z" /><path d="M2.125 9.20312H1.22656C0.785156 9.20312 0.429688 9.55859 0.429688 10C0.429688 10.4414 0.785156 10.7969 1.22656 10.7969H2.12109C2.5625 10.7969 2.91797 10.4414 2.91797 10C2.92187 9.55859 2.5625 9.20312 2.125 9.20312V9.20312Z" /><path d="M15.6406 3.23438L15.0039 3.86719C14.6914 4.17969 14.6914 4.68359 15.0039 4.99609C15.3164 5.30859 15.8203 5.30859 16.1328 4.99609L16.7656 4.36328C17.0781 4.05078 17.0781 3.54688 16.7656 3.23438C16.4531 2.92188 15.9492 2.92188 15.6406 3.23438Z" /><path d="M3.86719 15.0039L3.23438 15.6367C2.92188 15.9492 2.92188 16.4531 3.23438 16.7656C3.54688 17.0781 4.05078 17.0781 4.36328 16.7656L4.99609 16.1328C5.30859 15.8203 5.30859 15.3164 4.99609 15.0039C4.68359 14.6914 4.17969 14.6953 3.86719 15.0039Z" /><path d="M16.1328 15.0039C15.8203 14.6914 15.3164 14.6914 15.0039 15.0039C14.6914 15.3164 14.6914 15.8203 15.0039 16.1328L15.6367 16.7656C15.9492 17.0781 16.4531 17.0781 16.7656 16.7656C17.0781 16.4531 17.0781 15.9492 16.7656 15.6367L16.1328 15.0039Z" /><path d="M3.86719 4.99609C4.17969 5.30859 4.68359 5.30859 4.99609 4.99609C5.30859 4.68359 5.30859 4.17969 4.99609 3.86719L4.36328 3.23438C4.05078 2.92188 3.54688 2.92188 3.23438 3.23438C2.92188 3.54688 2.92188 4.05078 3.23438 4.36328L3.86719 4.99609V4.99609Z" /></g></svg>